//+ Name: Synth Crystal
//+ Date: 2019-08-12
//+ URL: http://freepats.zenvoid.org/Synthesizer/synth-effects.html#Crystal

<global>
 ampeg_release=2
 loop_mode=loop_continuous

<group>
<region>
 lokey=32 hikey=38
 loop_start=156227
 loop_end=239169
 pitch_keycenter=36
 sample=samples/C2.flac
<region>
 lokey=39 hikey=44
 loop_start=156684
 loop_end=239169
 pitch_keycenter=42
 sample=samples/F#2.flac
<region>
 lokey=45 hikey=50
 loop_start=157245
 loop_end=239169
 pitch_keycenter=48
 sample=samples/C3.flac
<region>
 lokey=51 hikey=56
 loop_start=158115
 loop_end=239169
 pitch_keycenter=54
 sample=samples/F#3.flac
<region>
 lokey=57 hikey=62
 loop_start=156065
 loop_end=239169
 pitch_keycenter=60
 sample=samples/C4.flac
<region>
 lokey=63 hikey=68
 loop_start=154184
 loop_end=239169
 pitch_keycenter=66
 sample=samples/F#4.flac
<region>
 lokey=69 hikey=74
 loop_start=158848
 loop_end=239169
 pitch_keycenter=72
 sample=samples/C5.flac
<region>
 lokey=75 hikey=80
 loop_start=153768
 loop_end=239169
 pitch_keycenter=78
 sample=samples/F#5.flac
<region>
 lokey=81 hikey=86
 loop_start=153497
 loop_end=239169
 pitch_keycenter=84
 sample=samples/C6.flac
<region>
 lokey=87 hikey=92
 loop_start=159221
 loop_end=239169
 pitch_keycenter=90
 sample=samples/F#6.flac
<region>
 lokey=93 hikey=103
 loop_start=158470
 loop_end=239169
 pitch_keycenter=96
 sample=samples/C7.flac
